C:\GBW_MyPrograms\KinderuniversiteitApp\Resultaten\New_group\test4_v1.mot
version=1
nRows=16
nColumns=31
inDegrees=yes
endheader
                time	         pelvis_tilt	           pelvis_tx	           pelvis_ty	       hip_flexion_r	        knee_angle_r	       ankle_angle_r	       hip_flexion_l	        knee_angle_l	       ankle_angle_l	    lumbar_extension	          arm_flex_r	          arm_flex_l	hamstrings_r/activation	bifemsh_r/activation	glut_max_r/activation	iliopsoas_r/activation	rect_fem_r/activation	  vasti_r/activation	gastroc_r/activation	 soleus_r/activation	tib_ant_r/activation	hamstrings_l/activation	bifemsh_l/activation	glut_max_l/activation	iliopsoas_l/activation	rect_fem_l/activation	  vasti_l/activation	gastroc_l/activation	 soleus_l/activation	tib_ant_l/activation	
          0.00000000	          0.09921154	          0.00000000	          1.16753535	        -10.56583350	          9.26203299	        -13.53927614	         -8.77064942	        -23.21045505	        -20.17019136	         -2.49415752	         -6.43442960	         -6.43026233	          0.67728688	          0.56802913	          0.56927561	          0.40983825	          0.45932489	          0.61882099	          0.67081020	          0.56441643	          0.77409458	          0.51153214	          0.72148568	          0.30687199	          0.72710492	          0.46540524	          0.22018947	          0.51152451	          0.29078904	          0.79867907	
          0.00778885	          0.10387020	          0.00993313	          1.16935790	        -12.28897755	         10.72881327	        -14.53454015	         -7.32458694	        -24.69240249	        -19.16671000	         -2.53945957	         -6.37267908	         -6.36829701	          0.70124199	          0.61952319	          0.53946213	          0.49883164	          0.42025539	          0.58278250	          0.73777221	          0.64747543	          0.73979933	          0.49899907	          0.71546024	          0.33284390	          0.72258829	          0.48542183	          0.21638169	          0.50154275	          0.26915269	          0.80120153	
          0.01557770	          0.13120864	          0.01934374	          1.17074370	        -13.42664382	         10.94167890	        -14.73468392	         -5.81965566	        -26.29179499	        -18.25715632	         -2.66421941	         -6.24102280	         -6.23644067	          0.69498771	          0.68367953	          0.51155203	          0.64283252	          0.39016879	          0.55264973	          0.77393535	          0.68312170	          0.67596517	          0.46359128	          0.72135846	          0.31492821	          0.74678502	          0.54969633	          0.21114765	          0.49090266	          0.24798070	          0.80412595	
          0.02336656	          0.15796296	          0.02826538	          1.17173016	        -14.02200755	         10.36634058	        -14.65411745	         -4.25377248	        -27.95099308	        -17.41214899	         -2.83752135	         -6.04872885	         -6.04396309	          0.69707515	          0.73844561	          0.48037198	          0.74026109	          0.36347335	          0.52159791	          0.77776939	          0.67064296	          0.63157880	          0.43524960	          0.72510170	          0.29640221	          0.75026747	          0.59894714	          0.20503155	          0.47964331	          0.22947381	          0.80636611	
          0.03115541	          0.17749792	          0.03683834	          1.17234689	        -14.26594999	          9.67189955	        -14.74056512	         -2.65362222	        -29.60166796	        -16.58581864	         -3.03722858	         -5.81491164	         -5.80997971	          0.68013070	          0.76989176	          0.44317976	          0.80398808	          0.35005641	          0.49151560	          0.76763367	          0.65862246	          0.58865331	          0.40371597	          0.72990561	          0.27291916	          0.76320665	          0.64805388	          0.19460264	          0.46670440	          0.21237290	          0.81108206	
          0.03894426	          0.19065550	          0.04517541	          1.17266793	        -14.26026768	          8.92087071	        -15.13881536	         -1.04086155	        -31.19774028	        -15.77903646	         -3.25275341	         -5.55362018	         -5.54854090	          0.67084312	          0.78069676	          0.41042912	          0.84522910	          0.33586025	          0.47116115	          0.74608456	          0.65658440	          0.54711761	          0.37010178	          0.73520665	          0.25766451	          0.77371058	          0.68451297	          0.18538563	          0.45317218	          0.19675371	          0.81432859	
          0.04673311	          0.19779624	          0.05335568	          1.17277809	        -14.02823760	          7.77998075	        -15.22178944	          0.57372723	        -32.71308769	        -14.98292816	         -3.47643093	         -5.27475708	         -5.26955065	          0.66092200	          0.77510559	          0.38381057	          0.84540407	          0.31688906	          0.45229127	          0.71125365	          0.63866343	          0.52409005	          0.34666844	          0.73459603	          0.24575556	          0.77718499	          0.71448604	          0.18002973	          0.43840819	          0.18215007	          0.81901537	
          0.05452197	          0.19673174	          0.06144087	          1.17269999	        -13.62926870	          6.31362088	        -14.96211241	          2.18746762	        -34.13733929	        -14.16752590	         -3.69955959	         -4.98658010	         -4.98126787	          0.63607883	          0.75265242	          0.35991258	          0.81244204	          0.30656833	          0.44357772	          0.67441736	          0.63807589	          0.49043921	          0.31889507	          0.73172176	          0.22877139	          0.78439001	          0.73898197	          0.17568170	          0.42312409	          0.16851091	          0.82357351	
          0.06231082	          0.18862252	          0.06948266	          1.17246327	        -13.12614854	          4.65879780	        -14.56481420	          3.79652493	        -35.46330423	        -13.33999164	         -3.91842292	         -4.69537298	         -4.68997690	          0.60606124	          0.71998019	          0.34876161	          0.75940754	          0.36667008	          0.44804903	          0.63507880	          0.63863568	          0.45784731	          0.29469967	          0.72553669	          0.21759899	          0.78628404	          0.75380575	          0.17551859	          0.40767548	          0.15614014	          0.82706282	
          0.07009967	          0.17128351	          0.07752682	          1.17209530	        -12.56441636	          2.91331285	        -14.13791177	          5.39956596	        -36.68113786	        -12.50555399	         -4.12601640	         -4.40737772	         -4.40192012	          0.56962751	          0.68227759	          0.36315511	          0.70096056	          0.46264926	          0.46505349	          0.59427931	          0.63228959	          0.42768503	          0.27431380	          0.71888678	          0.20784310	          0.78814463	          0.76261114	          0.17927135	          0.39199179	          0.14472200	          0.83058748	
          0.07788852	          0.14432675	          0.08562302	          1.17162146	        -11.99043428	          1.16617750	        -13.75063061	          6.98997045	        -37.77731361	        -11.65034788	         -4.31707454	         -4.12893412	         -4.12343847	          0.52793369	          0.64226296	          0.40463053	          0.64388250	          0.55726140	          0.49318431	          0.55311947	          0.61874379	          0.40039590	          0.25635019	          0.71224056	          0.19824093	          0.79269237	          0.76782173	          0.18630706	          0.37637844	          0.13415471	          0.83420954	
          0.08567738	          0.10856846	          0.09382532	          1.17106187	        -11.45460839	         -0.49251796	        -13.45049565	          8.55831153	        -38.73723122	        -10.76867363	         -4.48730721	         -3.86666807	         -3.86115794	          0.48588146	          0.60200486	          0.46333108	          0.58921064	          0.64010998	          0.53169440	          0.51222976	          0.59990835	          0.37687107	          0.24052760	          0.70454436	          0.18977052	          0.79829304	          0.76897886	          0.19785516	          0.36130274	          0.12460080	          0.83746701	
          0.09346623	          0.06461154	          0.10219117	          1.17042938	        -11.00904837	         -1.97292064	        -13.26450140	         10.09347558	        -39.54291402	         -9.86839926	         -4.63182585	         -3.62765835	         -3.62215719	          0.44641229	          0.56301232	          0.52729154	          0.53695695	          0.70828980	          0.57591753	          0.47202928	          0.57748314	          0.35887490	          0.22714791	          0.69590960	          0.18142586	          0.80317999	          0.76490309	          0.22251429	          0.34691246	          0.11589458	          0.84057347	
          0.10125508	          0.01356807	          0.11078135	          1.16973239	        -10.70573910	         -3.19008328	        -13.20033815	         11.57810494	        -40.16353811	         -8.95640096	         -4.74598214	         -3.41926844	         -3.41380039	          0.41030504	          0.52537482	          0.59269558	          0.48807932	          0.76234069	          0.62138074	          0.43333251	          0.55339075	          0.34780508	          0.21614281	          0.68708487	          0.17299900	          0.80483039	          0.75473570	          0.26403500	          0.33316870	          0.10777015	          0.84356587	
          0.10904393	         -0.04132384	          0.11965708	          1.16897835	        -10.59473722	         -4.06914245	        -13.25211144	         12.98530323	        -40.55135253	         -8.03360177	         -4.82753874	         -3.24844157	         -3.24303023	          0.37824437	          0.48885742	          0.65320743	          0.44241164	          0.80513467	          0.66851073	          0.39701670	          0.52848859	          0.34196190	          0.20670053	          0.67834710	          0.16762451	          0.80151766	          0.73982316	          0.31515906	          0.32005599	          0.10015659	          0.84646600	
          0.11683279	         -0.09582170	          0.12887205	          1.16816975	        -10.71801533	         -4.55273582	        -13.40427829	         14.28397179	        -40.65154183	         -7.10106844	         -4.87615770	         -3.12092498	         -3.11559386	          0.35223029	          0.45349623	          0.71044507	          0.39918191	          0.83863953	          0.70906266	          0.36353313	          0.50354790	          0.36459274	          0.19750022	          0.66879193	          0.17108502	          0.78861533	          0.72121819	          0.36970554	          0.30716777	          0.09283444	          0.84913785	
